<svg width="134" height="13" viewBox="0 0 134 13" fill="none" xmlns="http://www.w3.org/2000/svg">
<path fill-rule="evenodd" clip-rule="evenodd" d="M0 12.9987H2.00256L2.66793 11.389H8.10069L8.76606 12.9987H10.7609L5.37591 0L0 12.9987ZM3.41469 9.59791L5.37591 4.83171L7.35393 9.59791H3.41469ZM17.7466 0.0251929H15.9159V12.9987H23.7129V11.2228H17.7453V0.0226713L17.7466 0.0251929ZM26.2491 1.79741H29.532V12.9962H31.3873V1.79741H34.6702V0.0226713H26.2491V1.79741ZM44.7024 0.0226713C43.8202 0.00654991 42.944 0.165761 42.127 0.490589C41.31 0.815416 40.5695 1.29905 39.9505 1.91202C39.3267 2.51134 38.8313 3.22559 38.4932 4.01323C38.1551 4.80086 37.981 5.64617 37.981 6.5C37.981 7.35383 38.1551 8.19914 38.4932 8.98678C38.8313 9.77442 39.3267 10.4887 39.9505 11.088C41.2142 12.3074 42.9204 12.9915 44.6985 12.9915C46.4766 12.9915 48.1828 12.3074 49.4465 11.088C50.0681 10.4875 50.5615 9.77282 50.8983 8.98534C51.235 8.19787 51.4084 7.35316 51.4084 6.5C51.4084 5.64684 51.235 4.80213 50.8983 4.01466C50.5615 3.22718 50.0681 2.51255 49.4465 1.91202C48.8286 1.29975 48.0894 0.816495 47.2738 0.49168C46.4582 0.166866 45.5833 0.00728648 44.7024 0.0226713ZM48.1907 9.89013C47.2567 10.7848 45.9996 11.2862 44.6901 11.2862C43.3806 11.2862 42.1236 10.7848 41.1895 9.89013C40.7319 9.44701 40.3687 8.92001 40.1209 8.33948C39.873 7.75896 39.7454 7.13637 39.7454 6.50756C39.7454 5.87876 39.873 5.25616 40.1209 4.67563C40.3687 4.0951 40.7319 3.5681 41.1895 3.12499C42.1211 2.22573 43.3791 1.72129 44.6901 1.72129C46.0011 1.72129 47.2591 2.22573 48.1907 3.12499C48.6508 3.56672 49.0163 4.09328 49.2657 4.67399C49.5151 5.25471 49.6435 5.87799 49.6435 6.50756C49.6435 7.13713 49.5151 7.76041 49.2657 8.34112C49.0163 8.92184 48.6508 9.44839 48.1907 9.89013ZM59.8301 0.0239321H56.5886V12.9975H58.4852V10.1005H59.8314C60.5164 10.1118 61.1966 9.98689 61.8303 9.73329C62.4641 9.47969 63.0382 9.10275 63.5174 8.62552C64.0011 8.1592 64.385 7.60398 64.6471 6.99201C64.9091 6.38004 65.044 5.72347 65.044 5.06032C65.044 4.39716 64.9091 3.74059 64.6471 3.12862C64.385 2.51665 64.0011 1.96143 63.5174 1.49511C63.0382 1.01788 62.4641 0.640943 61.8303 0.387342C61.1966 0.13374 60.5164 0.00880139 59.8314 0.0201574L59.8301 0.0239321ZM62.1828 7.3395C61.8765 7.64185 61.5107 7.88062 61.1072 8.04146C60.7038 8.2023 60.2711 8.28186 59.8353 8.27536H58.4891V1.85535H59.8353C60.2727 1.84706 60.707 1.92717 61.111 2.09062C61.5151 2.25407 61.88 2.49733 62.1828 2.80506C62.4987 3.09443 62.7488 3.44516 62.917 3.83459C63.0853 4.22401 63.1679 4.6435 63.1596 5.06598C63.1664 5.49012 63.0831 5.91104 62.915 6.3023C62.7469 6.69355 62.4976 7.04669 62.1828 7.3395ZM77.3765 8.63182C77.8601 8.1655 78.2441 7.61027 78.5061 6.9983C78.7681 6.38633 78.9031 5.72977 78.9031 5.06662C78.9031 4.40346 78.7681 3.74689 78.5061 3.13492C78.2441 2.52295 77.8601 1.96773 77.3765 1.50141C76.8973 1.02433 76.3235 0.647488 75.69 0.393892C75.0564 0.140295 74.3765 0.0152697 73.6917 0.0264537H70.3662V13H72.2628V10.103H74.2486L76.6284 13H79.0418L76.1995 9.49462C76.6302 9.2576 77.0275 8.96717 77.3816 8.63056L77.3765 8.63182ZM73.6917 8.27536H72.2628V1.85157H73.6905C74.1272 1.84331 74.5611 1.92281 74.9649 2.08511C75.3688 2.24742 75.7341 2.48906 76.038 2.79498C76.3469 3.09078 76.5923 3.44362 76.7598 3.83289C76.9273 4.22217 77.0135 4.64007 77.0135 5.0622C77.0135 5.48434 76.9273 5.90225 76.7598 6.29152C76.5923 6.68079 76.3469 7.03363 76.038 7.32942C75.733 7.63396 75.3675 7.87469 74.9639 8.03689C74.5603 8.1991 74.127 8.27938 73.6905 8.27284L73.6917 8.27536ZM90.875 0.0264537C89.9929 0.0103323 89.1166 0.169536 88.2997 0.494363C87.4827 0.819191 86.7421 1.30284 86.1231 1.91581C85.4993 2.51512 85.004 3.22936 84.6659 4.017C84.3278 4.80464 84.1537 5.64995 84.1537 6.50378C84.1537 7.35761 84.3278 8.20292 84.6659 8.99056C85.004 9.77819 85.4993 10.4924 86.1231 11.0918C87.3868 12.3112 89.0931 12.9953 90.8712 12.9953C92.6492 12.9953 94.3555 12.3112 95.6192 11.0918C96.2406 10.4911 96.7339 9.77648 97.0705 8.98902C97.4072 8.20156 97.5805 7.35689 97.5805 6.50378C97.5805 5.65067 97.4072 4.806 97.0705 4.01854C96.7339 3.23108 96.2406 2.51642 95.6192 1.91581C95.0012 1.30359 94.262 0.820373 93.4464 0.495563C92.6308 0.170752 91.7559 0.0111425 90.875 0.0264537ZM94.3711 9.89265C93.4371 10.7874 92.18 11.2887 90.8705 11.2887C89.561 11.2887 88.304 10.7874 87.3699 9.89265C86.9121 9.44962 86.5488 8.92265 86.3009 8.34211C86.0529 7.76156 85.9253 7.13893 85.9253 6.51007C85.9253 5.88122 86.0529 5.25859 86.3009 4.67805C86.5488 4.09751 86.9121 3.57054 87.3699 3.12751C88.3015 2.22825 89.5595 1.72381 90.8705 1.72381C92.1815 1.72381 93.4395 2.22825 94.3711 3.12751C94.8313 3.56924 95.1967 4.0958 95.4461 4.67651C95.6955 5.25723 95.8239 5.88051 95.8239 6.51007C95.8239 7.13964 95.6955 7.76293 95.4461 8.34364C95.1967 8.92436 94.8313 9.45091 94.3711 9.89265ZM102.769 0.0264537V13H104.578V6.24872L109.084 12.9987L113.582 6.24872V12.9987H115.39V0.0251929L109.075 9.35481L102.764 0.0226713L102.769 0.0264537ZM132.039 1.91581C130.772 0.700794 129.067 0.0198345 127.29 0.0198345C125.513 0.0198345 123.808 0.700794 122.541 1.91581C121.918 2.51512 121.422 3.22936 121.084 4.017C120.746 4.80464 120.572 5.64995 120.572 6.50378C120.572 7.35761 120.746 8.20292 121.084 8.99056C121.422 9.77819 121.918 10.4924 122.541 11.0918C123.805 12.3116 125.512 12.9959 127.29 12.9959C129.068 12.9959 130.775 12.3116 132.039 11.0918C132.66 10.4911 133.153 9.77648 133.49 8.98902C133.827 8.20156 134 7.35689 134 6.50378C134 5.65067 133.827 4.806 133.49 4.01854C133.153 3.23108 132.66 2.51642 132.039 1.91581ZM130.791 9.88634C129.857 10.7811 128.6 11.2824 127.29 11.2824C125.981 11.2824 124.723 10.7811 123.789 9.88634C123.332 9.44331 122.968 8.91635 122.72 8.33581C122.472 7.75527 122.345 7.13263 122.345 6.50378C122.345 5.87493 122.472 5.25229 122.72 4.67175C122.968 4.09121 123.332 3.56424 123.789 3.12121C124.721 2.22196 125.979 1.71751 127.29 1.71751C128.601 1.71751 129.859 2.22196 130.791 3.12121C131.251 3.56295 131.616 4.08949 131.866 4.67021C132.115 5.25093 132.243 5.87421 132.243 6.50378C132.243 7.13335 132.115 7.75663 131.866 8.33735C131.616 8.91806 131.251 9.44461 130.791 9.88634Z" fill="white"/>
</svg>
